<?xml version="1.0" standalone="no"?>
<!DOCTYPE svg PUBLIC "-//W3C//DTD SVG 20010904//EN"
 "http://www.w3.org/TR/2001/REC-SVG-20010904/DTD/svg10.dtd">
<svg version="1.0" xmlns="http://www.w3.org/2000/svg"
 width="1280.000000pt" height="674.000000pt" viewBox="0 0 1280.000000 674.000000"
 preserveAspectRatio="xMidYMid meet">
<metadata>
Created by potrace 1.15, written by Peter Selinger 2001-2017
</metadata>
<g transform="translate(0.000000,674.000000) scale(0.100000,-0.100000)"
fill="#000000" stroke="none">
<path d="M0 4925 l0 -1815 6400 0 6400 0 0 260 0 260 -3840 0 -3840 0 0 260 0
260 3840 0 3840 0 0 255 0 255 -3840 0 -3840 0 0 265 0 265 3840 0 3840 0 0
255 0 255 -3840 0 -3840 0 0 260 0 260 3840 0 3840 0 0 260 0 260 -6400 0
-6400 0 0 -1815z m451 1585 l23 -70 75 0 75 0 -57 -42 c-31 -23 -57 -47 -57
-53 0 -7 9 -38 20 -70 11 -32 20 -60 20 -62 0 -2 -26 14 -58 36 -32 23 -62 41
-67 41 -4 0 -32 -18 -62 -40 -59 -46 -63 -41 -33 45 11 32 17 61 12 64 -4 3
-30 22 -57 41 l-50 35 72 3 72 3 23 69 c12 39 23 70 24 70 2 0 13 -31 25 -70z
m1802 -72 l72 -3 -55 -39 c-30 -22 -56 -40 -57 -41 -2 -1 7 -30 18 -64 12 -34
19 -65 16 -68 -4 -3 -28 11 -55 31 -27 20 -54 36 -59 36 -5 0 -33 -18 -63 -40
-29 -22 -55 -38 -57 -37 -2 2 6 30 17 62 11 32 20 64 20 71 0 7 -26 31 -57 53
l-58 41 76 0 75 0 24 73 23 72 24 -72 24 -72 72 -3z m758 72 l23 -70 75 0 75
0 -57 -42 c-31 -23 -57 -47 -57 -53 0 -7 9 -38 20 -70 11 -32 20 -60 20 -62 0
-2 -26 14 -58 36 -32 23 -62 41 -67 41 -4 0 -32 -18 -62 -40 -59 -46 -63 -41
-33 45 11 32 17 61 12 64 -4 3 -30 22 -57 41 l-50 35 72 3 72 3 23 69 c12 39
23 70 24 70 2 0 13 -31 25 -70z m1802 -72 l72 -3 -55 -39 c-30 -22 -56 -40
-57 -41 -2 -1 7 -30 18 -64 12 -34 19 -65 16 -68 -4 -3 -28 11 -55 31 -27 20
-54 36 -59 36 -5 0 -33 -18 -63 -40 -29 -22 -55 -38 -57 -37 -2 2 6 30 17 62
11 32 20 64 20 71 0 7 -26 31 -57 53 l-58 41 76 0 75 0 24 73 23 72 24 -72 24
-72 72 -3z m-3507 70 l20 -63 73 -5 73 -5 -48 -35 c-26 -19 -52 -38 -57 -41
-6 -4 0 -35 13 -73 12 -37 20 -69 18 -71 -2 -2 -27 14 -55 36 -29 21 -57 39
-63 39 -6 0 -35 -18 -63 -40 -29 -21 -53 -36 -55 -32 -1 5 7 34 18 67 11 32
20 61 20 65 0 4 -26 24 -57 46 l-57 39 74 5 74 5 20 63 c11 34 23 62 26 62 3
0 15 -28 26 -62z m2560 0 l20 -63 73 -5 73 -5 -48 -35 c-26 -19 -52 -38 -57
-41 -6 -4 0 -35 13 -73 12 -37 20 -69 18 -71 -2 -2 -27 14 -55 36 -29 21 -57
39 -63 39 -6 0 -35 -18 -63 -40 -29 -21 -53 -36 -55 -32 -1 5 7 34 18 67 11
32 20 61 20 65 0 4 -26 24 -57 46 l-57 39 74 5 74 5 20 63 c11 34 23 62 26 62
3 0 15 -28 26 -62z m-2888 -428 l76 0 -61 -46 -62 -45 15 -47 c32 -103 33
-100 -20 -61 -25 19 -53 38 -60 43 -10 7 -30 -2 -70 -32 -30 -23 -57 -42 -60
-42 -3 0 4 25 15 57 10 31 19 64 19 73 0 9 -26 34 -57 56 l-57 39 75 3 75 3
24 72 23 72 24 -72 25 -73 76 0z m753 70 l23 -69 74 -3 74 -3 -56 -40 c-30
-22 -56 -47 -56 -56 0 -9 9 -41 19 -72 11 -32 18 -57 15 -57 -3 0 -30 19 -60
42 l-55 41 -61 -43 c-68 -47 -65 -51 -34 52 l15 47 -62 45 -61 46 77 0 76 0
22 70 c13 39 24 70 25 70 2 0 13 -31 25 -70z m1807 -70 l76 0 -61 -46 -62 -45
15 -47 c32 -103 33 -100 -20 -61 -25 19 -53 38 -60 43 -10 7 -30 -2 -70 -32
-30 -23 -57 -42 -60 -42 -3 0 4 25 15 57 10 31 19 64 19 73 0 9 -26 34 -57 56
l-57 39 75 3 75 3 24 72 23 72 24 -72 25 -73 76 0z m753 70 l23 -69 74 -3 74
-3 -56 -40 c-30 -22 -56 -47 -56 -56 0 -9 9 -41 19 -72 11 -32 18 -57 15 -57
-3 0 -30 19 -60 42 l-55 41 -61 -43 c-68 -47 -65 -51 -34 52 l15 47 -62 45
-61 46 77 0 76 0 22 70 c13 39 24 70 25 70 2 0 13 -31 25 -70z m-1705 -2 l20
-63 74 -5 74 -5 -57 -43 c-31 -23 -57 -46 -57 -51 0 -4 9 -34 20 -66 11 -32
19 -60 17 -62 -2 -1 -28 15 -57 37 -30 22 -56 40 -59 40 -3 0 -31 -18 -60 -40
-30 -22 -56 -38 -58 -36 -2 1 6 29 17 61 11 32 20 63 20 69 -1 6 -26 29 -58
51 l-57 40 74 5 75 5 20 63 c11 34 23 62 26 62 3 0 15 -28 26 -62z m-2131
-368 l18 -60 76 0 76 -1 -34 -27 c-19 -15 -46 -37 -60 -49 l-26 -21 22 -66
c12 -36 19 -66 16 -66 -2 0 -30 18 -60 40 l-56 40 -55 -40 c-31 -22 -58 -38
-60 -35 -3 3 15 67 35 121 2 5 -24 30 -58 55 l-61 44 75 3 76 3 21 64 c12 36
25 63 29 61 4 -3 16 -32 26 -66z m851 8 l20 -63 72 -3 c40 -2 72 -6 72 -10 -1
-4 -25 -24 -55 -45 -30 -21 -55 -41 -55 -46 0 -4 9 -34 20 -66 11 -32 18 -60
16 -63 -3 -2 -29 15 -60 38 l-55 42 -56 -42 c-31 -23 -58 -40 -61 -38 -2 3 5
31 16 63 11 32 20 61 20 65 0 4 -26 27 -57 51 l-58 44 74 5 75 5 20 63 c11 34
23 62 26 62 3 0 15 -28 26 -62z m854 -3 l21 -64 77 -3 77 -3 -63 -44 c-35 -25
-61 -49 -59 -55 20 -54 38 -118 35 -121 -2 -3 -29 13 -59 35 l-56 39 -54 -39
c-30 -22 -57 -40 -61 -40 -3 0 3 30 15 66 l22 66 -26 21 c-14 12 -41 34 -60
49 l-34 27 76 1 76 0 12 42 c18 57 30 88 35 88 2 0 14 -29 26 -65z m855 -5
l18 -60 76 0 76 -1 -34 -27 c-19 -15 -46 -37 -60 -49 l-26 -21 22 -66 c12 -36
19 -66 16 -66 -2 0 -30 18 -60 40 l-56 40 -55 -40 c-31 -22 -58 -38 -60 -35
-3 3 15 67 35 121 2 5 -24 30 -58 55 l-61 44 75 3 76 3 21 64 c12 36 25 63 29
61 4 -3 16 -32 26 -66z m851 8 l20 -63 72 -3 c40 -2 72 -6 72 -10 -1 -4 -25
-24 -55 -45 -30 -21 -55 -41 -55 -46 0 -4 9 -34 20 -66 11 -32 18 -60 16 -63
-3 -2 -29 15 -60 38 l-55 42 -56 -42 c-31 -23 -58 -40 -61 -38 -2 3 5 31 16
63 11 32 20 61 20 65 0 4 -26 27 -57 51 l-58 44 74 5 75 5 20 63 c11 34 23 62
26 62 3 0 15 -28 26 -62z m854 -3 l21 -64 77 -3 77 -3 -63 -44 c-35 -25 -61
-49 -59 -55 20 -54 38 -118 35 -121 -2 -3 -29 13 -59 35 l-56 39 -54 -39 c-30
-22 -57 -40 -61 -40 -3 0 3 30 15 66 l22 66 -26 21 c-14 12 -41 34 -60 49
l-34 27 76 1 76 0 12 42 c18 57 30 88 35 88 2 0 14 -29 26 -65z m-3747 -437
l72 -3 -50 -35 c-27 -19 -53 -38 -57 -41 -4 -3 2 -33 13 -68 12 -34 19 -65 16
-67 -3 -3 -30 12 -59 34 l-54 39 -59 -43 c-33 -23 -61 -41 -62 -40 -2 2 6 29
17 61 11 32 20 64 20 71 0 7 -25 31 -56 53 l-56 40 74 3 73 3 22 65 c12 36 23
67 23 70 1 3 13 -27 26 -67 l25 -72 72 -3z m761 70 l21 -63 74 -3 75 -3 -57
-40 c-31 -22 -57 -46 -57 -53 0 -7 9 -39 20 -71 11 -32 20 -60 20 -62 0 -2
-28 16 -62 40 l-62 45 -54 -40 c-29 -22 -56 -37 -59 -34 -3 2 4 33 16 67 11
35 17 65 13 68 -5 3 -30 22 -56 41 l-48 35 70 3 71 3 22 69 c13 38 25 67 27
65 3 -3 14 -33 26 -67z m851 4 l20 -67 74 -5 74 -5 -57 -39 c-31 -21 -56 -42
-56 -46 0 -4 9 -33 20 -65 11 -32 20 -62 20 -67 0 -5 -24 9 -53 32 -30 22 -59
40 -66 40 -6 0 -36 -18 -66 -40 -30 -22 -55 -37 -55 -32 0 5 9 35 20 67 11 32
20 61 20 65 0 4 -25 25 -56 46 l-57 39 74 5 74 5 20 67 c11 38 22 68 25 68 3
0 14 -30 25 -68z m948 -74 l72 -3 -50 -35 c-27 -19 -53 -38 -57 -41 -4 -3 2
-33 13 -68 12 -34 19 -65 16 -67 -3 -3 -30 12 -59 34 l-54 39 -59 -43 c-33
-23 -61 -41 -62 -40 -2 2 6 29 17 61 11 32 20 64 20 71 0 7 -25 31 -56 53
l-56 40 74 3 73 3 22 65 c12 36 23 67 23 70 1 3 13 -27 26 -67 l25 -72 72 -3z
m761 70 l21 -63 74 -3 75 -3 -57 -40 c-31 -22 -57 -46 -57 -53 0 -7 9 -39 20
-71 11 -32 20 -60 20 -62 0 -2 -28 16 -62 40 l-62 45 -54 -40 c-29 -22 -56
-37 -59 -34 -3 2 4 33 16 67 11 35 17 65 13 68 -5 3 -30 22 -56 41 l-48 35 70
3 71 3 22 69 c13 38 25 67 27 65 3 -3 14 -33 26 -67z m-3843 -358 l23 -69 75
-3 75 -3 -57 -39 c-31 -22 -57 -44 -57 -50 0 -6 9 -39 19 -74 12 -39 15 -59 8
-55 -7 4 -34 23 -61 42 -34 24 -52 32 -62 25 -7 -5 -34 -24 -59 -42 -25 -18
-45 -30 -45 -25 0 4 9 36 19 71 l20 63 -61 45 -60 44 75 0 76 0 22 70 c13 39
24 70 25 70 2 0 13 -31 25 -70z m1807 -70 l76 0 -61 -45 -61 -44 19 -63 c10
-35 19 -67 19 -71 0 -4 -25 11 -55 33 -30 22 -57 40 -61 40 -3 0 -27 -15 -53
-33 -72 -52 -71 -52 -50 15 10 35 19 68 19 74 0 6 -25 29 -56 50 l-57 39 75 3
74 3 24 72 23 72 24 -72 25 -73 76 0z m753 70 l23 -69 75 -3 75 -3 -57 -39
c-31 -22 -57 -44 -57 -50 0 -6 9 -39 19 -74 12 -39 15 -59 8 -55 -7 4 -34 23
-61 42 -34 24 -52 32 -62 25 -7 -5 -34 -24 -59 -42 -25 -18 -45 -30 -45 -25 0
4 9 36 19 71 l20 63 -61 45 -60 44 75 0 76 0 22 70 c13 39 24 70 25 70 2 0 13
-31 25 -70z m1807 -70 l76 0 -61 -45 -61 -44 19 -63 c10 -35 19 -67 19 -71 0
-4 -25 11 -55 33 -30 22 -57 40 -61 40 -3 0 -27 -15 -53 -33 -72 -52 -71 -52
-50 15 10 35 19 68 19 74 0 6 -25 29 -56 50 l-57 39 75 3 74 3 24 72 23 72 24
-72 25 -73 76 0z m-3512 68 l20 -63 75 -5 74 -5 -50 -35 c-27 -19 -53 -38 -58
-41 -7 -5 11 -84 31 -138 3 -8 -22 5 -56 29 l-62 43 -62 -43 c-34 -24 -59 -37
-56 -29 20 54 38 133 31 138 -5 3 -31 22 -58 41 l-50 35 74 5 75 5 20 63 c11
34 23 62 26 62 3 0 15 -28 26 -62z m2560 0 l20 -63 75 -5 74 -5 -50 -35 c-27
-19 -53 -38 -58 -41 -7 -5 11 -84 31 -138 3 -8 -22 5 -56 29 l-62 43 -62 -43
c-34 -24 -59 -37 -56 -29 20 54 38 133 31 138 -5 3 -31 22 -58 41 l-50 35 74
5 75 5 20 63 c11 34 23 62 26 62 3 0 15 -28 26 -62z m-2986 -363 l21 -64 76
-3 76 -3 -61 -43 c-34 -24 -62 -45 -62 -46 0 -2 9 -29 20 -61 11 -32 20 -62
20 -67 0 -5 -27 9 -59 32 l-59 42 -55 -41 c-29 -23 -57 -41 -60 -41 -3 0 5 31
18 69 l23 69 -61 44 -62 43 76 3 76 3 13 41 c17 57 29 88 34 88 2 0 14 -29 26
-65z m855 -4 l18 -60 76 -3 76 -3 -61 -44 -62 -43 23 -69 c13 -38 22 -69 19
-69 -3 0 -29 18 -59 40 -30 22 -56 40 -58 40 -2 0 -27 -18 -57 -40 -29 -22
-55 -38 -58 -36 -3 4 15 68 35 122 2 7 -24 31 -58 55 l-62 44 76 3 76 3 21 64
c12 36 25 63 29 61 4 -3 16 -32 26 -65z m851 7 l20 -63 75 -5 74 -5 -57 -44
c-32 -24 -58 -47 -58 -51 0 -4 9 -33 20 -65 11 -32 19 -60 17 -62 -2 -2 -29
15 -61 38 l-57 41 -55 -42 c-31 -23 -57 -40 -60 -38 -2 3 5 31 16 63 11 32 20
62 20 66 0 5 -26 28 -57 51 l-58 43 74 5 75 5 20 63 c11 34 23 62 26 62 3 0
15 -28 26 -62z m854 -3 l21 -64 76 -3 76 -3 -61 -43 c-34 -24 -62 -45 -62 -46
0 -2 9 -29 20 -61 11 -32 20 -62 20 -67 0 -5 -27 9 -59 32 l-59 42 -55 -41
c-29 -23 -57 -41 -60 -41 -3 0 5 31 18 69 l23 69 -61 44 -62 43 76 3 76 3 13
41 c17 57 29 88 34 88 2 0 14 -29 26 -65z m855 -4 l18 -60 76 -3 76 -3 -61
-44 -62 -43 23 -69 c13 -38 22 -69 19 -69 -3 0 -29 18 -59 40 -30 22 -56 40
-58 40 -2 0 -27 -18 -57 -40 -29 -22 -55 -38 -58 -36 -3 4 15 68 35 122 2 7
-24 31 -58 55 l-62 44 76 3 76 3 21 64 c12 36 25 63 29 61 4 -3 16 -32 26 -65z
m-3840 -364 l20 -62 70 -5 70 -5 -53 -38 c-28 -21 -52 -44 -52 -51 0 -7 9 -38
19 -69 11 -32 16 -57 12 -57 -4 0 -31 18 -61 40 -31 23 -58 36 -64 32 -6 -5
-30 -23 -54 -41 -24 -19 -45 -31 -48 -28 -5 5 11 62 33 123 2 5 -22 28 -54 50
l-57 39 72 3 71 3 21 70 c12 39 24 68 28 64 4 -4 16 -34 27 -68z m851 6 l19
-68 72 -5 72 -5 -55 -39 c-30 -22 -54 -43 -54 -46 0 -4 9 -33 20 -65 11 -32
18 -60 15 -63 -2 -3 -29 14 -59 36 l-54 41 -57 -40 c-31 -23 -58 -39 -61 -37
-2 3 5 31 16 63 11 32 20 62 20 66 0 4 -26 26 -57 48 l-57 40 74 3 74 3 20 68
c10 37 22 67 26 67 3 0 15 -30 26 -67z m854 -3 l21 -69 71 -3 72 -3 -57 -39
c-32 -22 -56 -45 -54 -50 20 -56 38 -118 35 -122 -3 -2 -30 14 -60 36 l-55 39
-54 -39 c-29 -22 -56 -40 -60 -40 -4 0 1 25 12 57 10 31 19 62 19 70 0 7 -24
30 -52 51 l-53 37 70 5 70 5 17 50 c9 28 19 58 21 68 8 29 15 19 37 -53z m855
-3 l20 -62 70 -5 70 -5 -53 -38 c-28 -21 -52 -44 -52 -51 0 -7 9 -38 19 -69
11 -32 16 -57 12 -57 -4 0 -31 18 -61 40 -31 23 -58 36 -64 32 -6 -5 -30 -23
-54 -41 -24 -19 -45 -31 -48 -28 -5 5 11 62 33 123 2 5 -22 28 -54 50 l-57 39
72 3 71 3 21 70 c12 39 24 68 28 64 4 -4 16 -34 27 -68z m851 6 l19 -68 72 -5
72 -5 -55 -39 c-30 -22 -54 -43 -54 -46 0 -4 9 -33 20 -65 11 -32 18 -60 15
-63 -2 -3 -29 14 -59 36 l-54 41 -57 -40 c-31 -23 -58 -39 -61 -37 -2 3 5 31
16 63 11 32 20 62 20 66 0 4 -26 26 -57 48 l-57 40 74 3 74 3 20 68 c10 37 22
67 26 67 3 0 15 -30 26 -67z m854 -3 l21 -69 71 -3 72 -3 -57 -39 c-32 -22
-56 -45 -54 -50 20 -56 38 -118 35 -122 -3 -2 -30 14 -60 36 l-55 39 -54 -39
c-29 -22 -56 -40 -60 -40 -4 0 1 25 12 57 10 31 19 62 19 70 0 7 -24 30 -52
51 l-53 37 70 5 70 5 17 50 c9 28 19 58 21 68 8 29 15 19 37 -53z m-3743 -430
l76 0 -59 -42 c-32 -23 -60 -42 -62 -43 -1 -1 7 -28 18 -60 30 -86 26 -90 -33
-45 -30 22 -57 40 -62 40 -4 0 -28 -15 -54 -33 -74 -53 -72 -53 -55 0 30 98
31 94 -32 141 l-58 42 75 0 75 0 24 73 23 72 24 -72 25 -73 75 0z m754 70 l23
-70 75 0 75 0 -58 -42 c-63 -47 -62 -43 -32 -140 8 -27 14 -48 12 -48 -1 0
-27 18 -56 40 -29 22 -58 40 -63 40 -6 0 -34 -18 -64 -40 -59 -45 -63 -41 -33
45 11 32 19 59 18 60 -2 1 -28 19 -58 41 l-55 39 72 3 72 3 23 69 c12 39 23
70 24 70 2 0 13 -31 25 -70z m1806 -70 l76 0 -59 -42 c-32 -23 -60 -42 -62
-43 -1 -1 7 -28 18 -60 30 -86 26 -90 -33 -45 -30 22 -57 40 -62 40 -4 0 -28
-15 -54 -33 -74 -53 -72 -53 -55 0 30 98 31 94 -32 141 l-58 42 75 0 75 0 24
73 23 72 24 -72 25 -73 75 0z m754 70 l23 -70 75 0 75 0 -58 -42 c-63 -47 -62
-43 -32 -140 8 -27 14 -48 12 -48 -1 0 -27 18 -56 40 -29 22 -58 40 -63 40 -6
0 -34 -18 -64 -40 -59 -45 -63 -41 -33 45 11 32 19 59 18 60 -2 1 -28 19 -58
41 l-55 39 72 3 72 3 23 69 c12 39 23 70 24 70 2 0 13 -31 25 -70z m-1705 -2
l20 -63 73 -5 73 -5 -48 -35 c-26 -19 -52 -38 -57 -41 -5 -3 1 -36 12 -74 12
-37 20 -69 18 -71 -1 -2 -26 15 -54 37 -29 21 -56 39 -61 39 -5 0 -34 -18 -65
-41 -32 -22 -57 -36 -57 -31 0 5 9 35 20 67 11 32 20 61 20 65 0 4 -26 24 -57
46 l-57 39 74 5 74 5 20 63 c11 34 23 62 26 62 3 0 15 -28 26 -62z m-2135
-358 l23 -69 75 -3 76 -3 -57 -40 c-32 -22 -58 -47 -58 -56 0 -9 9 -41 19 -72
11 -32 18 -57 15 -57 -3 0 -29 19 -60 41 l-54 42 -60 -42 c-33 -23 -60 -38
-60 -33 0 5 9 35 20 67 11 32 20 59 20 61 0 1 -28 23 -62 48 l-62 46 77 0 76
0 22 70 c13 39 24 70 25 70 2 0 13 -31 25 -70z m1806 -72 l76 -3 -57 -39 c-31
-21 -59 -42 -61 -46 -3 -4 4 -34 15 -65 11 -32 20 -62 20 -67 0 -5 -26 10 -59
33 l-59 41 -55 -41 c-31 -22 -58 -41 -61 -41 -3 0 4 25 15 57 10 31 19 63 19
72 0 9 -26 34 -56 56 l-56 40 74 3 74 3 24 72 23 72 24 -72 24 -72 76 -3z
m754 72 l23 -69 75 -3 76 -3 -57 -40 c-32 -22 -58 -47 -58 -56 0 -9 9 -41 19
-72 11 -32 18 -57 15 -57 -3 0 -29 19 -60 41 l-54 42 -60 -42 c-33 -23 -60
-38 -60 -33 0 5 9 35 20 67 11 32 20 59 20 61 0 1 -28 23 -62 48 l-62 46 77 0
76 0 22 70 c13 39 24 70 25 70 2 0 13 -31 25 -70z m1806 -72 l76 -3 -57 -39
c-31 -21 -59 -42 -61 -46 -3 -4 4 -34 15 -65 11 -32 20 -62 20 -67 0 -5 -26
10 -59 33 l-59 41 -55 -41 c-31 -22 -58 -41 -61 -41 -3 0 4 25 15 57 10 31 19
63 19 72 0 9 -26 34 -56 56 l-56 40 74 3 74 3 24 72 23 72 24 -72 24 -72 76
-3z m-3511 70 l20 -63 74 -5 74 -5 -57 -43 c-31 -23 -57 -46 -57 -51 0 -4 9
-34 20 -66 11 -32 19 -60 17 -62 -2 -1 -28 15 -57 37 -30 22 -56 40 -59 40 -3
0 -31 -18 -60 -40 -30 -22 -56 -38 -58 -36 -2 1 6 29 17 61 11 32 20 62 20 66
0 5 -26 28 -57 51 l-57 43 74 5 74 5 20 63 c11 34 23 62 26 62 3 0 15 -28 26
-62z m2560 0 l20 -63 74 -5 74 -5 -57 -43 c-31 -23 -57 -46 -57 -51 0 -4 9
-34 20 -66 11 -32 19 -60 17 -62 -2 -1 -28 15 -57 37 -30 22 -56 40 -59 40 -3
0 -31 -18 -60 -40 -30 -22 -56 -38 -58 -36 -2 1 6 29 17 61 11 32 20 62 20 66
0 5 -26 28 -57 51 l-57 43 74 5 74 5 20 63 c11 34 23 62 26 62 3 0 15 -28 26
-62z"/>
<path d="M0 2335 l0 -255 6400 0 6400 0 0 255 0 255 -6400 0 -6400 0 0 -255z"/>
<path d="M0 1295 l0 -255 6400 0 6400 0 0 255 0 255 -6400 0 -6400 0 0 -255z"/>
<path d="M0 260 l0 -260 6400 0 6400 0 0 260 0 260 -6400 0 -6400 0 0 -260z"/>
</g>
</svg>
